<?xml version="1.0" encoding="UTF-8" standalone="no" ?>
<!DOCTYPE svg PUBLIC "-//W3C//DTD SVG 1.1//EN" "http://www.w3.org/Graphics/SVG/1.1/DTD/svg11.dtd">
<svg xmlns="http://www.w3.org/2000/svg" xmlns:xlink="http://www.w3.org/1999/xlink" version="1.1" width="1080" height="1080" viewBox="0 0 1080 1080" xml:space="preserve">
<desc>Created with Fabric.js 5.2.4</desc>
<defs>
</defs>
<rect x="0" y="0" width="100%" height="100%" fill="transparent"></rect>
<g transform="matrix(1 0 0 1 540 540)" id="754ae48c-a92f-4a22-82fe-01bf003c328a"  >
<rect style="stroke: none; stroke-width: 1; stroke-dasharray: none; stroke-linecap: butt; stroke-dashoffset: 0; stroke-linejoin: miter; stroke-miterlimit: 4; fill: rgb(255,255,255); fill-rule: nonzero; opacity: 1; visibility: hidden;" vector-effect="non-scaling-stroke"  x="-540" y="-540" rx="0" ry="0" width="1080" height="1080" />
</g>
<g transform="matrix(1 0 0 1 540 540)" id="f95876bc-35b9-4bc3-af9c-524e0c6735d1"  >
</g>
<g transform="matrix(0.24 0 0 0.24 533.05 533.05)"  >
<g style=""   >
		<g transform="matrix(0.13 0 0 -0.13 -0.07 -0.33)"  >
<path style="stroke: none; stroke-width: 1; stroke-dasharray: none; stroke-linecap: butt; stroke-dashoffset: 0; stroke-linejoin: miter; stroke-miterlimit: 4; fill: rgb(0,0,0); fill-rule: nonzero; opacity: 1;" vector-effect="non-scaling-stroke"  transform=" translate(-33334.45, -33337.47)" d="M 27605 50650 C 27320 50618 27048 50545 26797 50434 C 26742 50410 26606 50343 26495 50286 C 24813 49423 23476 47870 22856 46062 C 22599 45311 22481 44610 22463 43730 C 22446 42876 22590 42006 22906 41061 C 22951 40927 22979 40827 22976 40814 C 22966 40774 22813 40532 22651 40302 C 22439 39998 22377 39899 22231 39627 C 21934 39075 21728 38553 21523 37830 C 21462 37614 21433 37542 21364 37439 C 21277 37307 21158 37205 21005 37127 C 20912 37081 20848 37063 20710 37045 C 20118 36967 19690 36785 19355 36468 C 19196 36318 19030 36092 18935 35895 C 18788 35593 18722 35282 18733 34935 C 18741 34685 18756 34612 18870 34285 C 19102 33618 19274 33190 19470 32795 C 20035 31653 20701 30621 21468 29696 C 21585 29555 22312 28806 22483 28651 C 23608 27629 24884 26802 26220 26229 C 26424 26141 26449 26125 26450 26079 C 26450 26071 26406 25985 26352 25889 C 25629 24606 25181 23416 24985 22262 C 24947 22033 24910 21729 24910 21637 C 24910 21592 24926 21328 24945 21050 C 24982 20503 24997 20389 25070 20096 C 25334 19044 25957 18149 26935 17420 C 27791 16780 28910 16326 30135 16120 C 30474 16063 30561 16056 31235 16028 C 31551 16015 35368 16012 35620 16025 C 37201 16104 38649 16605 39805 17471 C 40551 18030 41109 18750 41433 19570 C 41581 19945 41656 20252 41711 20705 C 41738 20932 41749 21494 41731 21743 C 41661 22702 41396 23669 40910 24735 C 40794 24990 40712 25151 40522 25499 C 40369 25780 40227 26069 40218 26113 C 40216 26128 40252 26148 40430 26224 C 41356 26622 42195 27097 42965 27658 C 43198 27828 43374 27964 43422 28012 C 43576 28166 43603 28452 43482 28645 C 43384 28801 43177 28899 43002 28872 C 42868 28852 42815 28823 42583 28644 C 41995 28190 41205 27713 40460 27360 C 39037 26686 37446 26237 35835 26056 C 34346 25888 33091 25859 31850 25965 C 31754 25973 31612 25984 31535 25990 C 31133 26021 30572 26088 30160 26156 C 27871 26532 25835 27358 24153 28592 C 22318 29938 20872 31875 20003 34150 C 19891 34443 19784 34767 19770 34853 C 19750 34974 19762 35185 19794 35293 C 19845 35464 19926 35596 20057 35721 C 20232 35888 20385 35947 20845 36025 C 21230 36090 21339 36129 21650 36311 C 21899 36456 22112 36707 22407 37205 L 22515 37387 L 22625 37467 C 23238 37913 23970 38285 24724 38535 C 25185 38687 25745 38814 26065 38840 C 26344 38862 26461 38885 26568 38939 C 26725 39019 26840 39198 26840 39364 C 26840 39601 26665 39827 26441 39880 C 26317 39909 25780 39853 25370 39769 C 24758 39642 24073 39412 23290 39070 C 23199 39030 23111 38992 23093 38984 L 23061 38970 L 23087 39028 C 23188 39257 23449 39689 23663 39985 C 24136 40635 24871 41365 25549 41858 C 26809 42773 28215 43414 29855 43821 C 30710 44033 31554 44161 32570 44232 C 32851 44252 33824 44249 34155 44227 C 35623 44130 36934 43862 38200 43400 C 39624 42880 40876 42143 41870 41243 C 42455 40712 42958 40106 43337 39475 C 43423 39332 43610 38990 43610 38976 C 43610 38973 43595 38976 43578 38984 C 43560 38992 43462 39035 43360 39080 C 42255 39566 41259 39834 40301 39901 C 40083 39916 39504 39907 39310 39885 C 38350 39778 37632 39564 36806 39142 C 35997 38728 35181 38110 34529 37418 C 34445 37328 34333 37212 34280 37159 C 34102 36979 33889 36867 33617 36808 C 33480 36779 33198 36776 33070 36803 C 32877 36843 32701 36918 32560 37019 C 32502 37060 32394 37163 32220 37342 C 31951 37618 31756 37804 31525 38005 C 30589 38818 29602 39369 28576 39651 C 28367 39708 28302 39713 28200 39677 C 28113 39646 28057 39609 27987 39537 C 27877 39423 27824 39262 27848 39118 C 27867 39008 27911 38927 27999 38839 C 28087 38751 28173 38705 28310 38670 C 28629 38590 29150 38374 29532 38165 C 30217 37789 30917 37239 31508 36610 C 31603 36508 31716 36394 31758 36356 C 32114 36037 32553 35839 33060 35769 C 33200 35749 33529 35752 33670 35774 C 34015 35826 34358 35957 34630 36140 C 34800 36254 34951 36390 35315 36755 C 35739 37180 35946 37366 36284 37619 C 37173 38285 38144 38703 39095 38829 C 39390 38868 39517 38875 39895 38875 C 40352 38874 40596 38853 41024 38774 C 41989 38598 43002 38177 43895 37580 C 44125 37426 44179 37364 44385 37010 C 44515 36788 44554 36729 44636 36629 C 44704 36547 44732 36522 44895 36400 C 45183 36184 45443 36088 46038 35980 C 46292 35934 46356 35912 46480 35829 C 46700 35682 46861 35437 46911 35173 C 46918 35136 46921 35059 46918 34978 C 46912 34827 46910 34819 46778 34455 C 46197 32859 45357 31433 44277 30210 C 43962 29854 43905 29722 43975 29514 C 44017 29390 44094 29290 44203 29219 C 44312 29148 44433 29121 44533 29144 C 44719 29187 44824 29275 45175 29685 C 46140 30809 46901 32057 47502 33499 C 47605 33747 47779 34208 47838 34390 C 48041 35016 47928 35698 47536 36218 C 47337 36480 47135 36648 46845 36791 C 46573 36925 46292 37004 45966 37040 C 45700 37070 45479 37203 45318 37430 C 45227 37559 45191 37648 45120 37925 C 45070 38121 44934 38531 44851 38738 C 44586 39399 44213 40067 43767 40679 L 43662 40822 L 43701 40922 C 44067 41860 44255 42964 44212 43918 C 44195 44292 44175 44477 44104 44905 C 43771 46924 42569 48762 40840 49896 C 40159 50342 39665 50562 39180 50635 C 38947 50670 38557 50665 38315 50624 C 37875 50550 37433 50351 37070 50064 C 36882 49916 36524 49529 36234 49159 C 35464 48180 34817 46985 34292 45570 C 34249 45452 34205 45331 34195 45301 L 34177 45247 L 34042 45254 C 33748 45268 33218 45271 32895 45262 C 32515 45251 32520 45250 32475 45318 C 32451 45355 32425 45419 32324 45695 C 31763 47224 31005 48533 30051 49620 C 29976 49705 29869 49820 29813 49876 C 29416 50275 28880 50540 28287 50631 C 28137 50654 27742 50665 27605 50650 z M 28090 49630 C 28215 49614 28404 49566 28522 49520 C 28805 49408 29020 49252 29241 48998 C 30044 48078 30667 47068 31135 45925 C 31237 45675 31418 45173 31409 45166 C 31407 45164 31340 45153 31260 45141 C 31018 45103 30511 45012 30220 44954 C 29606 44831 29132 44708 28655 44548 C 28523 44504 28409 44467 28403 44466 C 28395 44466 28371 44522 28342 44605 C 27890 45902 27039 47001 25900 47755 C 25747 47857 25503 48001 25356 48076 C 25314 48098 25280 48118 25280 48122 C 25280 48125 25346 48191 25428 48268 C 25974 48786 26486 49151 27045 49421 C 27315 49551 27474 49605 27659 49629 C 27754 49641 27992 49642 28090 49630 z M 39115 49611 C 39289 49575 39406 49531 39635 49415 C 40244 49107 40724 48767 41184 48320 C 41249 48257 41320 48184 41342 48158 L 41381 48111 L 41301 48071 C 40930 47884 40478 47577 40131 47276 C 39291 46547 38683 45654 38333 44633 C 38298 44530 38273 44471 38266 44473 C 38199 44499 37856 44605 37665 44660 C 37030 44841 36266 45003 35314 45160 L 35243 45171 L 35295 45313 C 35634 46235 36027 47039 36492 47764 C 36816 48268 37257 48829 37590 49160 C 37816 49385 38133 49549 38457 49609 C 38612 49638 38616 49638 38825 49635 C 38967 49632 39040 49626 39115 49611 z M 24855 47170 C 25647 46781 26304 46195 26804 45432 C 26994 45144 27160 44824 27283 44510 C 27352 44335 27423 44124 27418 44109 C 27416 44104 27334 44062 27234 44016 C 26033 43460 24860 42689 23972 41871 C 23909 41813 23841 41750 23819 41732 L 23781 41699 L 23746 41812 C 23668 42063 23599 42364 23555 42650 C 23313 44204 23660 45839 24503 47128 C 24597 47272 24605 47281 24629 47275 C 24643 47272 24745 47225 24855 47170 z M 42157 47148 C 42720 46289 43046 45340 43157 44240 C 43182 43989 43182 43289 43157 43040 C 43134 42812 43097 42554 43059 42360 C 43032 42222 42965 41936 42940 41855 C 42935 41839 42922 41792 42910 41752 L 42889 41679 L 42742 41817 C 41817 42687 40789 43373 39515 43971 L 39265 44088 L 39268 44119 C 39272 44170 39384 44494 39456 44666 C 39837 45566 40477 46337 41281 46863 C 41514 47016 41675 47102 42020 47257 C 42034 47264 42052 47269 42061 47269 C 42070 47270 42108 47221 42157 47148 z M 27505 25730 C 27563 25708 27983 25587 28232 25521 C 29577 25162 30985 24956 32475 24900 C 32987 24881 34213 24892 34675 24920 C 36077 25005 37498 25249 38945 25656 C 39077 25693 39194 25725 39206 25727 C 39223 25731 39245 25698 39362 25493 C 40033 24315 40421 23375 40600 22490 C 40685 22068 40710 21842 40717 21421 C 40725 20959 40701 20700 40621 20382 C 40427 19617 39962 18905 39315 18385 C 38643 17845 37781 17436 36875 17226 C 36715 17189 36449 17138 36444 17143 C 36442 17145 36481 17204 36531 17276 C 36869 17759 37168 18337 37379 18916 C 37616 19568 37753 20218 37801 20914 C 37816 21130 37811 21191 37772 21275 C 37697 21435 37513 21540 37310 21540 C 37060 21539 36868 21399 36830 21190 C 36825 21160 36811 21056 36799 20960 C 36697 20113 36477 19309 36176 18685 C 35850 18009 35416 17481 34889 17117 C 34795 17052 34791 17050 34704 17040 C 34606 17029 34100 17026 33949 17036 L 33854 17043 L 33858 18949 C 33862 20896 33860 21050 33825 21185 C 33774 21380 33661 21487 33458 21535 C 33283 21576 33099 21520 32964 21386 C 32862 21283 32848 21245 32839 21020 C 32835 20924 32832 19990 32831 18944 L 32830 17043 L 32688 17037 C 32476 17027 32077 17029 31981 17040 C 31904 17049 31890 17054 31817 17102 C 31131 17552 30585 18330 30239 19350 C 30166 19565 30116 19734 30051 19995 C 29995 20219 29981 20306 29945 20631 C 29909 20959 29878 21119 29820 21273 C 29777 21389 29676 21481 29550 21521 C 29473 21545 29341 21549 29260 21530 C 29105 21494 28967 21393 28908 21272 L 28875 21205 L 28876 21025 C 28878 20744 28918 20411 29000 20000 C 29190 19051 29577 18122 30131 17288 C 30185 17206 30225 17140 30219 17140 C 30214 17140 30131 17156 30036 17175 C 29197 17344 28434 17648 27796 18067 C 27494 18266 27285 18434 27039 18680 C 26604 19114 26322 19547 26150 20047 C 25920 20711 25880 21549 26040 22350 C 26238 23347 26646 24366 27278 25440 C 27469 25764 27457 25748 27505 25730 z" stroke-linecap="round" />
</g>
		<g transform="matrix(0.13 0 0 -0.13 -592.94 -92.22)"  >
<path style="stroke: none; stroke-width: 1; stroke-dasharray: none; stroke-linecap: butt; stroke-dashoffset: 0; stroke-linejoin: miter; stroke-miterlimit: 4; fill: rgb(0,0,0); fill-rule: nonzero; opacity: 1;" vector-effect="non-scaling-stroke"  transform=" translate(-28887.91, -34026.67)" d="M 28785 34954 C 28599 34915 28487 34815 28420 34630 C 28372 34500 28368 34442 28372 33980 C 28377 33509 28378 33502 28445 33363 C 28472 33308 28498 33276 28553 33225 C 28727 33066 28906 33043 29125 33153 C 29199 33190 29308 33297 29344 33368 C 29403 33484 29404 33502 29405 34010 C 29405 34521 29401 34568 29348 34679 C 29284 34813 29115 34936 28960 34960 C 28880 34972 28872 34972 28785 34954 z" stroke-linecap="round" />
</g>
		<g transform="matrix(0.13 0 0 -0.13 590.47 -92.15)"  >
<path style="stroke: none; stroke-width: 1; stroke-dasharray: none; stroke-linecap: butt; stroke-dashoffset: 0; stroke-linejoin: miter; stroke-miterlimit: 4; fill: rgb(0,0,0); fill-rule: nonzero; opacity: 1;" vector-effect="non-scaling-stroke"  transform=" translate(-37763.5, -34026.12)" d="M 37690 34960 C 37615 34946 37507 34901 37455 34862 C 37358 34788 37299 34669 37269 34485 C 37255 34396 37250 33878 37261 33670 C 37275 33415 37335 33290 37495 33175 C 37583 33113 37655 33088 37755 33087 C 37940 33086 38129 33193 38213 33348 C 38267 33447 38272 33501 38272 33995 C 38272 34495 38265 34600 38225 34684 C 38193 34752 38117 34837 38050 34880 C 37949 34945 37794 34979 37690 34960 z" stroke-linecap="round" />
</g>
		<g transform="matrix(0.13 0 0 -0.13 2.66 99.65)"  >
<path style="stroke: none; stroke-width: 1; stroke-dasharray: none; stroke-linecap: butt; stroke-dashoffset: 0; stroke-linejoin: miter; stroke-miterlimit: 4; fill: rgb(0,0,0); fill-rule: nonzero; opacity: 1;" vector-effect="non-scaling-stroke"  transform=" translate(-33354.98, -32587.65)" d="M 31176 33594 C 31028 33558 30896 33457 30840 33338 C 30801 33254 30786 33140 30793 32980 C 30811 32597 30948 32292 31230 32009 C 31453 31785 31667 31669 31987 31598 C 32072 31579 32115 31576 32305 31576 C 32496 31576 32539 31579 32630 31598 C 32853 31647 33077 31742 33242 31861 C 33316 31913 33327 31918 33345 31906 C 33522 31790 33767 31678 33965 31621 C 34252 31539 34586 31548 34878 31645 C 35247 31769 35579 32066 35759 32434 C 35874 32670 35944 33018 35910 33185 C 35862 33421 35627 33610 35380 33610 C 35200 33610 35015 33481 34949 33310 C 34937 33280 34908 33177 34884 33081 C 34817 32814 34776 32743 34631 32648 C 34541 32589 34479 32570 34380 32570 C 34247 32570 34124 32620 34019 32717 C 33941 32789 33927 32821 33856 33076 C 33777 33363 33769 33383 33691 33461 C 33495 33656 33191 33659 32996 33467 C 32921 33393 32887 33326 32854 33186 C 32758 32789 32737 32747 32577 32653 C 32462 32584 32445 32578 32354 32573 C 32209 32563 32082 32611 31969 32717 C 31867 32814 31837 32883 31762 33195 C 31746 33261 31722 33338 31709 33365 C 31682 33425 31592 33515 31523 33553 C 31424 33606 31292 33622 31176 33594 z" stroke-linecap="round" />
</g>
</g>
</g>
</svg>